<?xml version="1.0" encoding="utf-8"?>
<!-- Generator: Adobe Illustrator 14.0.0, SVG Export Plug-In . SVG Version: 6.00 Build 43363)  -->
<!DOCTYPE svg PUBLIC "-//W3C//DTD SVG 1.1//EN" "http://www.w3.org/Graphics/SVG/1.1/DTD/svg11.dtd">
<svg version="1.1" id="Layer_1" xmlns="http://www.w3.org/2000/svg" xmlns:xlink="http://www.w3.org/1999/xlink" x="0px" y="0px"
	 width="600px" height="600px" viewBox="0 0 600 600" enable-background="new 0 0 600 600" xml:space="preserve">
<g>
	<path d="M23.18,288.811c35.513,0,40.585-19.787,41.093-37.544c0-14.205-2.031-28.411-4.057-42.11
		c-2.033-14.712-4.061-28.918-4.061-42.617c0-46.676,30.949-66.463,74.075-66.463h10.147v27.904h-8.626
		c-29.934,0.507-40.588,16.235-40.588,43.632c0,11.67,2.031,23.846,3.552,36.022c2.029,12.683,4.059,24.862,4.059,38.56
		c0.508,32.47-14.205,48.704-37.036,54.793V302c22.831,6.089,37.036,22.832,37.036,55.304c0,13.698-2.029,26.382-4.059,39.066
		c-1.521,12.176-3.552,24.351-3.552,36.524c0,28.416,12.175,43.638,40.588,44.145h8.626v27.902H129.72
		c-41.599,0-73.564-18.264-73.564-69.506c0-13.695,2.028-27.902,4.566-41.604c1.521-14.208,3.552-27.903,3.552-41.097
		c0-16.233-5.073-38.049-41.093-38.049V288.811z"/>
</g>
<g>
	<path d="M582.635,314.687c-36.022,0-41.097,21.815-41.097,38.049c0,13.193,2.031,26.889,3.554,41.097
		c2.536,13.701,4.568,27.908,4.568,41.604c0,51.242-31.968,69.506-73.567,69.506h-10.658v-27.902h8.626
		c28.415-0.507,40.59-15.729,40.59-44.145c0-12.174-2.029-24.349-3.549-36.524c-2.031-12.685-4.063-25.368-4.063-39.066
		c0-32.472,14.208-49.215,37.035-55.304v-1.013c-22.827-6.089-37.542-22.323-37.035-54.793c0-13.698,2.032-25.877,4.063-38.56
		c1.52-12.176,3.549-24.352,3.549-36.022c0-27.397-10.654-43.125-40.59-43.632h-8.626v-27.904h10.149
		c43.128,0,74.076,19.787,74.076,66.463c0,13.698-2.032,27.904-4.059,42.617c-2.032,13.7-4.063,27.906-4.063,42.11
		c0.512,17.758,5.583,37.544,41.097,37.544V314.687z"/>
</g>
<path fill="#999999" d="M263.543,304.094c0,3.213-1.081,4.817-3.235,4.817h-25.64c-2.156,0-7.769-7.274-16.834-21.831
	c-7.655-12.298-12.747-21.181-15.272-26.647c-2.527-5.262-3.977-8.2-4.349-8.815c-2.228-3.415-4.832-5.228-7.803-5.433
	c-0.891-0.067-3.381-0.104-7.469-0.104c-9.364,0-14.047,1.063-14.047,3.179c0,6.287,0.242,15.68,0.725,28.185
	c0.481,12.504,0.726,21.866,0.726,28.084c0,2.255-0.931,3.381-2.787,3.381c-1.412,0-3.531-0.102-6.355-0.306
	c-2.825-0.207-4.943-0.308-6.353-0.308c-1.337,0-3.328,0.101-5.965,0.308c-2.64,0.204-4.625,0.306-5.963,0.306
	c-1.859,0-2.789-0.785-2.789-2.354c0-7.517,0.392-18.809,1.17-33.875c0.781-15.067,1.17-26.358,1.17-33.874
	c0-7.928-0.389-19.834-1.17-35.72c-0.779-15.888-1.17-27.792-1.17-35.719c0-1.502,0.93-2.256,2.789-2.256
	c1.338,0,3.38,0.104,6.129,0.308c2.75,0.207,4.831,0.307,6.243,0.307c1.338,0,3.344-0.101,6.021-0.307
	c2.676-0.204,4.684-0.308,6.021-0.308c1.709,0,2.563,0.615,2.563,1.846c0,5.807-0.205,14.555-0.613,26.238
	c-0.408,11.686-0.612,20.466-0.612,26.339c0,2.667,0.185,4.341,0.557,5.024c0.594,1.229,2.118,1.846,4.572,1.846
	c14.418,0,24.972-2.462,31.66-7.38c5.723-4.373,11.147-12.404,16.276-24.086c3.715-9.155,7.429-18.311,11.147-27.47
	c0.519-1.161,1.673-1.947,3.456-2.357c1.189-0.272,5.128-0.409,11.818-0.409c8.175,0,12.262,1.062,12.262,3.177
	c0,1.231-1.71,6.764-5.127,16.604c-4.014,11.48-9.216,21.591-15.605,30.34c-4.239,5.944-9.852,11.922-16.835,17.935
	c-1.782,1.436-2.674,2.733-2.674,3.896c0,1.23,3.008,7.344,9.031,18.344c5.2,9.5,9.919,17.12,14.157,22.857
	c4.682,5.262,11.221,13.36,19.62,24.289C263.355,302.761,263.543,303.414,263.543,304.094z"/>
<path fill="#999999" d="M473.703,361.913c0,2.564-7.194,15.109-21.581,37.646c-9.1,14.074-18.201,28.141-27.305,42.212
	c-1.103,1.768-2.313,2.647-3.634,2.647h-22.133c-1.029,0-2.056-0.88-3.083-2.647c-0.219-0.364-8.956-14.008-26.202-40.932
	c-14.755-23.085-22.133-35.695-22.133-37.827c0-4.81,0.202-12.043,0.607-21.699c0.4-9.651,0.604-16.888,0.604-21.697
	c0-2.254,0.879-3.384,2.644-3.384c1.393,0,3.431,0.095,6.109,0.276s4.717,0.275,6.109,0.275c1.319,0,3.338-0.094,6.059-0.275
	c2.712-0.182,4.731-0.276,6.056-0.276c1.687,0,2.532,0.583,2.532,1.737c0,4.933-0.386,12.368-1.155,22.295
	c-0.772,9.927-1.159,17.391-1.159,22.383c0,4.144,11.377,22.598,34.136,55.37c6.014-8.528,12.549-18.305,19.597-29.331
	c10.201-15.957,15.307-25.334,15.307-28.139c0-4.747-0.186-11.848-0.552-21.288c-0.372-9.442-0.55-16.508-0.55-21.198
	c0-1.215,0.802-1.829,2.421-1.829c1.394,0,3.449,0.095,6.166,0.276c2.712,0.182,4.734,0.275,6.056,0.275
	c1.32,0,3.322-0.094,6.002-0.275s4.677-0.276,5.995-0.276c1.616,0,2.536,0.583,2.756,1.737c-0.075-0.422-0.11,0.731-0.11,3.475
	c0,4.509,0.072,11.25,0.221,20.233C473.629,350.666,473.703,357.41,473.703,361.913z"/>
<text transform="matrix(1 0 0 1 250.9575 425.3701)" font-family="'BerlinSansFB-Reg'" font-size="368.5324">/</text>
</svg>
