<?xml version="1.0" standalone="no"?>
<!DOCTYPE svg PUBLIC "-//W3C//DTD SVG 20010904//EN"
 "http://www.w3.org/TR/2001/REC-SVG-20010904/DTD/svg10.dtd">
<svg version="1.0" xmlns="http://www.w3.org/2000/svg"
 width="700.000000pt" height="700.000000pt" viewBox="0 0 700.000000 700.000000"
 preserveAspectRatio="xMidYMid meet">
<metadata>
Created by potrace 1.14, written by Peter Selinger 2001-2017
</metadata>
<g transform="translate(0.000000,700.000000) scale(0.100000,-0.100000)"
fill="#000000" stroke="none">
<path d="M1547 5834 c-1 -1 -40 -4 -85 -5 -444 -12 -732 -228 -792 -594 -17
-108 -14 -389 5 -465 2 -8 6 -42 10 -75 3 -33 8 -71 10 -85 4 -22 8 -54 20
-135 1 -11 6 -47 10 -80 3 -33 9 -71 11 -85 3 -14 7 -88 9 -165 5 -158 -6
-232 -50 -320 -57 -117 -206 -190 -392 -194 l-33 -1 0 -150 0 -150 28 -1 c158
-6 270 -47 347 -130 51 -54 79 -111 94 -191 10 -50 7 -316 -3 -365 -3 -12 -8
-53 -11 -90 -4 -37 -8 -79 -10 -93 -8 -53 -37 -246 -41 -270 -8 -52 -18 -188
-18 -260 1 -248 48 -406 166 -555 82 -103 212 -185 359 -224 109 -29 129 -32
300 -38 l156 -6 0 162 c0 88 -3 161 -6 162 -3 0 -42 2 -86 4 -171 7 -273 42
-354 123 -107 107 -144 288 -117 573 4 36 8 74 10 84 2 11 7 49 11 85 4 36 8
67 10 70 2 3 6 34 10 70 4 36 9 68 10 71 11 17 20 156 20 314 0 194 -12 258
-71 380 -51 106 -161 202 -281 247 -74 27 -83 35 -47 44 16 4 62 23 103 42
136 66 232 186 278 347 19 69 27 358 13 460 -5 33 -12 83 -16 110 -3 28 -7 52
-9 55 -2 3 -6 32 -10 65 -3 33 -10 89 -15 125 -45 326 -27 522 58 640 79 109
192 158 384 165 51 2 96 4 99 5 3 0 6 72 6 160 0 156 0 160 -21 161 -11 0 -31
2 -44 3 -12 2 -23 1 -25 0z"/>
<path d="M5458 5832 l-28 -3 0 -160 c0 -144 2 -159 18 -160 9 0 52 -2 94 -4
164 -6 269 -44 346 -127 113 -120 140 -313 92 -674 -6 -43 -13 -97 -16 -119
-3 -22 -7 -47 -9 -55 -2 -8 -6 -37 -10 -65 -3 -27 -8 -57 -10 -65 -22 -79 -22
-379 -1 -480 37 -175 140 -313 286 -382 41 -19 88 -38 104 -42 36 -9 26 -19
-41 -40 -103 -34 -209 -119 -272 -221 -75 -119 -112 -343 -89 -540 3 -33 9
-85 11 -115 5 -47 11 -91 32 -220 2 -14 7 -50 10 -80 4 -30 9 -68 11 -85 27
-213 22 -371 -16 -481 -63 -183 -202 -271 -438 -279 -48 -2 -90 -3 -94 -4 -5
-1 -8 -74 -8 -162 l0 -162 158 6 c183 7 198 9 317 45 293 87 454 285 501 620
5 39 5 258 -1 317 -6 62 -12 105 -30 220 -22 138 -33 230 -50 405 -7 76 -7
217 0 265 28 185 144 302 327 331 24 3 50 8 58 9 8 2 31 4 51 4 l36 1 0 145
c0 80 -3 148 -7 150 -4 3 -36 7 -71 10 -109 9 -212 44 -268 91 -63 53 -113
150 -126 244 -5 44 -7 215 -1 255 2 17 7 64 11 105 4 41 9 84 11 95 7 36 43
308 49 370 4 33 8 78 10 100 6 59 6 264 -1 305 -39 253 -155 422 -359 528 -63
33 -159 66 -222 78 -21 4 -47 9 -58 11 -11 2 -69 6 -130 9 -60 3 -119 6 -130
7 -11 1 -32 1 -47 -1z"/>
<path d="M4076 5170 l-59 -5 -75 -240 c-40 -132 -87 -283 -102 -335 -16 -52
-72 -234 -125 -405 -125 -402 -342 -1103 -365 -1180 -10 -33 -48 -157 -85
-275 -37 -118 -74 -237 -82 -265 -8 -27 -46 -151 -85 -275 -38 -124 -85 -277
-105 -340 -19 -63 -42 -135 -49 -159 -8 -24 -13 -46 -10 -48 5 -5 345 -7 350
-2 2 2 44 137 94 299 50 162 150 486 222 720 73 234 178 576 235 760 185 600
355 1149 449 1453 75 241 90 297 77 298 -93 3 -238 3 -285 -1z"/>
<path d="M1660 5070 c-24 -6 -25 -8 -24 -95 2 -86 12 -343 19 -505 5 -93 5
-426 0 -500 -2 -30 -6 -131 -10 -225 -15 -356 -15 -356 42 -349 39 5 243 5
251 0 4 -2 17 0 28 4 24 9 25 24 9 486 -6 185 -5 212 9 223 10 9 57 15 133 18
156 6 161 2 238 -149 108 -213 298 -514 353 -560 28 -23 34 -24 183 -23 85 1
160 4 166 8 18 11 22 44 8 71 -7 13 -60 82 -117 151 -135 167 -138 171 -218
305 -82 139 -160 289 -160 309 0 7 43 57 96 109 154 152 244 303 328 550 47
139 49 170 8 173 -88 7 -240 5 -258 -3 -16 -8 -36 -44 -69 -127 -180 -444
-241 -520 -450 -564 -101 -20 -228 -22 -244 -3 -10 12 -12 93 -9 358 l3 343
-30 -2 c-54 -4 -246 -4 -253 0 -4 2 -18 1 -32 -3z"/>
<path d="M4076 3291 c-6 -18 -19 -377 -19 -481 1 -56 6 -74 38 -130 47 -82
223 -363 365 -585 60 -93 121 -190 136 -215 15 -25 34 -50 41 -55 9 -6 71 -10
152 -10 153 1 148 -1 196 75 16 25 52 81 80 125 29 44 101 157 162 250 129
199 251 401 280 465 20 42 21 60 18 302 -1 141 -5 261 -9 266 -4 6 -70 9 -168
9 l-163 -2 4 -265 3 -266 -39 -75 c-68 -130 -349 -560 -369 -565 -12 -3 -291
419 -350 530 l-47 88 7 142 c3 77 8 164 10 191 4 50 8 176 7 206 -1 15 -20 17
-166 17 -143 -1 -165 -3 -169 -17z"/>
</g>
</svg>
